<?xml version="1.0" encoding="UTF-8"?>
<svg xmlns="http://www.w3.org/2000/svg" viewBox="0 0 600 360" width="600" height="360">
  <!-- Warm cream background -->
  <rect width="600" height="360" fill="#f5f0e8" rx="16"/>

  <!-- ===== JAMES (left adult, professional man, brown hair) ===== -->
  <!-- Hair -->
  <ellipse cx="112" cy="88" rx="44" ry="38" fill="#6b4c2a"/>
  <ellipse cx="112" cy="102" rx="46" ry="24" fill="#6b4c2a"/>
  <!-- Face -->
  <ellipse cx="112" cy="118" rx="42" ry="46" fill="#F5D5B0"/>
  <!-- Neck -->
  <rect x="103" y="158" width="18" height="24" rx="4" fill="#F5D5B0"/>
  <!-- Shirt + collar -->
  <path d="M 50 280 Q 75 198 112 198 Q 149 198 174 280 L 200 360 L 0 360 Z" fill="#0A1628"/>
  <path d="M 112 198 L 96 224 L 112 214 L 128 224 Z" fill="white"/>
  <!-- Eyes -->
  <ellipse cx="100" cy="116" rx="7" ry="5" fill="white"/>
  <ellipse cx="124" cy="116" rx="7" ry="5" fill="white"/>
  <circle cx="101" cy="116" r="3.5" fill="#2a2a2a"/>
  <circle cx="125" cy="116" r="3.5" fill="#2a2a2a"/>
  <circle cx="102" cy="115" r="1" fill="white"/>
  <circle cx="126" cy="115" r="1" fill="white"/>
  <!-- Nose -->
  <path d="M 110 124 Q 107 131 110 134 Q 114 136 117 134 Q 120 131 113 124" fill="none" stroke="#e0b896" stroke-width="1.5" opacity="0.7"/>
  <!-- Mouth -->
  <path d="M 103 143 Q 112 150 121 143" fill="none" stroke="#c0745a" stroke-width="2" stroke-linecap="round"/>
  <!-- Label -->
  <text x="112" y="348" text-anchor="middle" font-family="Georgia, serif" font-size="11" fill="#0A1628" font-style="italic">James</text>

  <!-- ===== SON (second from left, 10yo boy, brown hair) ===== -->
  <!-- Hair -->
  <ellipse cx="218" cy="178" rx="32" ry="28" fill="#5a3d1f"/>
  <ellipse cx="218" cy="190" rx="34" ry="18" fill="#5a3d1f"/>
  <!-- Face -->
  <ellipse cx="218" cy="206" rx="30" ry="35" fill="#F5D5B0"/>
  <!-- Neck -->
  <rect x="211" y="237" width="14" height="18" rx="3" fill="#F5D5B0"/>
  <!-- Shirt -->
  <path d="M 168 310 Q 188 255 218 255 Q 248 255 268 310 L 285 360 L 150 360 Z" fill="#C9A84C"/>
  <!-- Eyes -->
  <ellipse cx="208" cy="204" rx="6" ry="4" fill="white"/>
  <ellipse cx="228" cy="204" rx="6" ry="4" fill="white"/>
  <circle cx="209" cy="204" r="3" fill="#2a2a2a"/>
  <circle cx="229" cy="204" r="3" fill="#2a2a2a"/>
  <circle cx="210" cy="203" r="1" fill="white"/>
  <circle cx="230" cy="203" r="1" fill="white"/>
  <!-- Nose -->
  <path d="M 216 212 Q 214 218 217 220 Q 220 221 222 220 Q 224 218 218 212" fill="none" stroke="#e0b896" stroke-width="1.5" opacity="0.6"/>
  <!-- Mouth -->
  <path d="M 210 229 Q 218 235 226 229" fill="none" stroke="#c0745a" stroke-width="2" stroke-linecap="round"/>
  <text x="218" y="348" text-anchor="middle" font-family="Georgia, serif" font-size="11" fill="#0A1628" font-style="italic">Tom</text>

  <!-- ===== DAUGHTER (third from left, 7yo girl, blonde) ===== -->
  <!-- Hair - long -->
  <ellipse cx="382" cy="188" rx="35" ry="42" fill="#c8a020"/>
  <ellipse cx="382" cy="175" rx="33" ry="34" fill="#c8a020"/>
  <rect x="347" y="200" width="14" height="65" rx="7" fill="#c8a020"/>
  <rect x="421" y="200" width="14" height="65" rx="7" fill="#c8a020"/>
  <!-- Face -->
  <ellipse cx="382" cy="206" rx="30" ry="35" fill="#FDDCB5"/>
  <!-- Neck -->
  <rect x="375" y="237" width="14" height="18" rx="3" fill="#FDDCB5"/>
  <!-- Dress -->
  <path d="M 330 310 Q 355 252 382 252 Q 409 252 430 310 L 450 360 L 310 360 Z" fill="#9b6b9b"/>
  <!-- Eyes -->
  <ellipse cx="372" cy="204" rx="6" ry="4.5" fill="white"/>
  <ellipse cx="392" cy="204" rx="6" ry="4.5" fill="white"/>
  <circle cx="373" cy="204" r="3" fill="#3d6b4a"/>
  <circle cx="393" cy="204" r="3" fill="#3d6b4a"/>
  <circle cx="374" cy="203" r="1" fill="white"/>
  <circle cx="394" cy="203" r="1" fill="white"/>
  <!-- Nose -->
  <path d="M 380 212 Q 378 218 381 220 Q 384 221 386 220 Q 388 218 382 212" fill="none" stroke="#e8c498" stroke-width="1.5" opacity="0.6"/>
  <!-- Mouth smiling wider -->
  <path d="M 373 230 Q 382 238 391 230" fill="none" stroke="#c0745a" stroke-width="2" stroke-linecap="round"/>
  <text x="382" y="348" text-anchor="middle" font-family="Georgia, serif" font-size="11" fill="#0A1628" font-style="italic">Lily</text>

  <!-- ===== EMMA (right adult, blonde-ish, female) ===== -->
  <!-- Hair - medium -->
  <ellipse cx="488" cy="86" rx="44" ry="42" fill="#c8a020"/>
  <ellipse cx="488" cy="102" rx="46" ry="26" fill="#c8a020"/>
  <rect x="444" y="112" width="16" height="65" rx="8" fill="#c8a020"/>
  <rect x="528" y="112" width="16" height="65" rx="8" fill="#c8a020"/>
  <!-- Face -->
  <ellipse cx="488" cy="118" rx="42" ry="46" fill="#FDDCB5"/>
  <!-- Neck -->
  <rect x="479" y="158" width="18" height="24" rx="4" fill="#FDDCB5"/>
  <!-- Blouse -->
  <path d="M 420 280 Q 450 200 488 200 Q 526 200 556 280 L 600 360 L 400 360 Z" fill="#4a6b8a"/>
  <!-- Eyes -->
  <ellipse cx="476" cy="116" rx="7" ry="5" fill="white"/>
  <ellipse cx="500" cy="116" rx="7" ry="5" fill="white"/>
  <circle cx="477" cy="116" r="3.5" fill="#3d6b4a"/>
  <circle cx="501" cy="116" r="3.5" fill="#3d6b4a"/>
  <circle cx="478" cy="115" r="1" fill="white"/>
  <circle cx="502" cy="115" r="1" fill="white"/>
  <!-- Nose -->
  <path d="M 486 124 Q 483 131 486 134 Q 490 136 493 134 Q 496 131 489 124" fill="none" stroke="#e8c498" stroke-width="1.5" opacity="0.6"/>
  <!-- Mouth -->
  <path d="M 479 143 Q 488 151 497 143" fill="none" stroke="#c0745a" stroke-width="2" stroke-linecap="round"/>
  <text x="488" y="348" text-anchor="middle" font-family="Georgia, serif" font-size="11" fill="#0A1628" font-style="italic">Emma</text>

  <!-- Subtle gold divider line at bottom -->
  <rect x="40" y="336" width="520" height="2" rx="1" fill="#C9A84C" opacity="0.4"/>
</svg>