<?xml version="1.0" encoding="UTF-8"?>
<svg xmlns="http://www.w3.org/2000/svg" viewBox="0 0 300 300" width="300" height="300">
  <!-- Background -->
  <rect width="300" height="300" fill="#e8f0e8" rx="150"/>
  
  
        <!-- Short curly hair -->
        <ellipse cx="150" cy="98" rx="60" ry="52" fill="#1a0a00"/>
        <circle cx="120" cy="88" r="18" fill="#1a0a00"/>
        <circle cx="140" cy="82" r="20" fill="#1a0a00"/>
        <circle cx="162" cy="82" r="20" fill="#1a0a00"/>
        <circle cx="180" cy="89" r="16" fill="#1a0a00"/>
        <circle cx="150" cy="78" r="18" fill="#1a0a00"/>
        
  <ellipse cx="150" cy="148" rx="62" ry="68" fill="#4a2c17"/>
  <rect x="138" y="178" width="24" height="35" rx="4" fill="#4a2c17"/>
  
    <ellipse cx="132" cy="148" rx="9" ry="6" fill="white"/>
    <ellipse cx="168" cy="148" rx="9" ry="6" fill="white"/>
    <circle cx="133" cy="148" r="4.5" fill="#2a2a2a"/>
    <circle cx="169" cy="148" r="4.5" fill="#2a2a2a"/>
    <circle cx="134.5" cy="146.5" r="1.5" fill="white"/>
    <circle cx="170.5" cy="146.5" r="1.5" fill="white"/>
    
  <path d="M 148 158 Q 144 168 148 172 Q 152 174 156 172 Q 160 168 152 158" fill="none" stroke="#4a2c17" stroke-width="2" opacity="0.6"/>
  <path d="M 138 180 Q 150 188 162 180" fill="none" stroke="#c0745a" stroke-width="2.5" stroke-linecap="round"/>
  <path d="M 55 280 Q 85 218 150 218 Q 215 218 245 280 L 300 300 L 0 300 Z" fill="#0A1628"/><path d="M 150 218 L 130 248 L 150 238 L 170 248 Z" fill="white"/>
  
</svg>