<?xml version="1.0" encoding="UTF-8"?>
<svg xmlns="http://www.w3.org/2000/svg" viewBox="0 0 300 300" width="300" height="300">
  <!-- Background -->
  <rect width="300" height="300" fill="#f0ede6" rx="150"/>
  
  
        <!-- Bun hairstyle -->
        <ellipse cx="150" cy="108" rx="58" ry="60" fill="#1a0a00"/>
        <ellipse cx="150" cy="88" rx="54" ry="48" fill="#1a0a00"/>
        <circle cx="150" cy="60" r="22" fill="#1a0a00"/>
        <rect x="90" y="110" width="18" height="50" rx="9" fill="#1a0a00"/>
        <rect x="192" y="110" width="18" height="50" rx="9" fill="#1a0a00"/>
        
  <ellipse cx="150" cy="148" rx="62" ry="68" fill="#C68642"/>
  <rect x="138" y="178" width="24" height="35" rx="4" fill="#C68642"/>
  
    <ellipse cx="132" cy="148" rx="9" ry="6" fill="white"/>
    <ellipse cx="168" cy="148" rx="9" ry="6" fill="white"/>
    <circle cx="133" cy="148" r="4.5" fill="#2a2a2a"/>
    <circle cx="169" cy="148" r="4.5" fill="#2a2a2a"/>
    <circle cx="134.5" cy="146.5" r="1.5" fill="white"/>
    <circle cx="170.5" cy="146.5" r="1.5" fill="white"/>
    
  <path d="M 148 158 Q 144 168 148 172 Q 152 174 156 172 Q 160 168 152 158" fill="none" stroke="#C68642" stroke-width="2" opacity="0.6"/>
  <path d="M 138 180 Q 150 188 162 180" fill="none" stroke="#c0745a" stroke-width="2.5" stroke-linecap="round"/>
  <path d="M 60 280 Q 90 220 150 220 Q 210 220 240 280 L 300 300 L 0 300 Z" fill="#0A1628"/>
  
</svg>